<svg width="640" height="300" viewBox="0 0 640 300" xmlns="http://www.w3.org/2000/svg" fill="none" role="img" aria-label="Fixed rate carry: PT converges to par by maturity">
  <defs>
    <linearGradient id="cg" x1="70" y1="240" x2="590" y2="60" gradientUnits="userSpaceOnUse">
      <stop stop-color="#E10098"/>
      <stop offset="0.55" stop-color="#FF45BF"/>
      <stop offset="1" stop-color="#C3F655"/>
    </linearGradient>
    <linearGradient id="area" x1="0" y1="60" x2="0" y2="240" gradientUnits="userSpaceOnUse">
      <stop stop-color="#E10098" stop-opacity="0.20"/>
      <stop offset="1" stop-color="#E10098" stop-opacity="0"/>
    </linearGradient>
    <filter id="glow" x="-60%" y="-60%" width="220%" height="220%">
      <feGaussianBlur stdDeviation="4" result="b"/>
      <feMerge><feMergeNode in="b"/><feMergeNode in="SourceGraphic"/></feMerge>
    </filter>
  </defs>

  <rect width="640" height="300" rx="20" fill="#141410"/>
  <text x="36" y="42" font-family="Host Grotesk,Arial,sans-serif" font-size="18" font-weight="700" fill="#f5f4ee">Fixed rate carry</text>
  <text x="36" y="64" font-family="Host Grotesk,Arial,sans-serif" font-size="12.5" fill="#a29e8f">Buy the principal token below par. It climbs to 1.00 by maturity. That climb is the locked return.</text>

  <line x1="70" y1="240" x2="600" y2="240" stroke="#2b2b23" stroke-width="1.2"/>
  <line x1="70" y1="90" x2="70" y2="240" stroke="#2b2b23" stroke-width="1.2"/>
  <line x1="70" y1="90" x2="600" y2="90" stroke="#C3F655" stroke-opacity="0.5" stroke-dasharray="3 6"/>
  <text x="30" y="94" font-family="Host Grotesk,Arial" font-size="11" fill="#a29e8f">1.00</text>
  <text x="30" y="228" font-family="Host Grotesk,Arial" font-size="11" fill="#a29e8f">0.95</text>
  <text x="74" y="258" font-family="Host Grotesk,Arial" font-size="11" fill="#a29e8f">buy today</text>
  <text x="520" y="258" font-family="Host Grotesk,Arial" font-size="11" fill="#a29e8f">maturity</text>

  <path d="M70 224 C220 208 400 140 590 92 L590 240 L70 240 Z" fill="url(#area)"/>

  <path d="M70 224 C220 208 400 140 590 92" fill="none" stroke="url(#cg)" stroke-width="4" stroke-linecap="round" stroke-dasharray="640" stroke-dashoffset="640">
    <animate attributeName="stroke-dashoffset" from="640" to="0" dur="2.6s" repeatCount="indefinite"/>
  </path>

  <circle r="6" fill="#ffffff" filter="url(#glow)">
    <animateMotion dur="2.6s" repeatCount="indefinite" path="M70 224 C220 208 400 140 590 92"/>
  </circle>

  <circle cx="590" cy="92" r="5" fill="#C3F655"/>
  <text x="470" y="82" font-family="Host Grotesk,Arial" font-size="12" font-weight="600" fill="#C3F655">redeems at 1.00</text>
</svg>
