<svg width="440" height="120" viewBox="0 0 440 120" fill="none" xmlns="http://www.w3.org/2000/svg" role="img" aria-label="Tenor">
  <defs>
    <linearGradient id="tg" x1="30" y1="14" x2="92" y2="106" gradientUnits="userSpaceOnUse">
      <stop stop-color="#4F46E5"/>
      <stop offset="1" stop-color="#06B6D4"/>
    </linearGradient>
    <linearGradient id="tgy" x1="72" y1="16" x2="80" y2="60" gradientUnits="userSpaceOnUse">
      <stop stop-color="#F59E0B"/>
      <stop offset="1" stop-color="#06B6D4"/>
    </linearGradient>
    <linearGradient id="tw" x1="150" y1="30" x2="430" y2="90" gradientUnits="userSpaceOnUse">
      <stop stop-color="#4F46E5"/>
      <stop offset="1" stop-color="#06B6D4"/>
    </linearGradient>
  </defs>
  <!-- mark -->
  <path d="M60 104 V78" stroke="url(#tg)" stroke-width="9" stroke-linecap="round"/>
  <path d="M60 78 C60 66 44 66 44 54 M60 78 C60 66 76 66 76 54" stroke="url(#tg)" stroke-width="9" stroke-linecap="round" fill="none"/>
  <path d="M44 54 V24" stroke="url(#tg)" stroke-width="9" stroke-linecap="round"/>
  <circle cx="44" cy="18" r="6" fill="#4F46E5"/>
  <path d="M76 54 C76 42 70 40 76 30 C80 24 82 26 84 20" stroke="url(#tgy)" stroke-width="9" stroke-linecap="round" stroke-linejoin="round" fill="none"/>
  <path d="M78 18 L84 15 L86 21 Z" fill="#F59E0B"/>
  <!-- wordmark -->
  <text x="132" y="62" font-family="'Inter','Helvetica Neue',Arial,sans-serif" font-size="52" font-weight="700" letter-spacing="-1.5" fill="url(#tw)">Tenor</text>
  <text x="134" y="88" font-family="'Inter','Helvetica Neue',Arial,sans-serif" font-size="15" font-weight="500" letter-spacing="0.5" fill="#64748B">the fixed-rate market for Stellar</text>
</svg>
