<svg width="460" height="120" viewBox="0 0 460 120" fill="none" xmlns="http://www.w3.org/2000/svg" role="img" aria-label="Tenor">
  <defs>
    <linearGradient id="tg" x1="28" y1="12" x2="94" y2="108" gradientUnits="userSpaceOnUse">
      <stop stop-color="#2F4BFF"/>
      <stop offset="1" stop-color="#06B6D4"/>
    </linearGradient>
    <linearGradient id="tgy" x1="72" y1="14" x2="86" y2="60" gradientUnits="userSpaceOnUse">
      <stop stop-color="#FBBF24"/>
      <stop offset="1" stop-color="#F97316"/>
    </linearGradient>
    <linearGradient id="tw" x1="150" y1="30" x2="450" y2="90" gradientUnits="userSpaceOnUse">
      <stop stop-color="#2F4BFF"/>
      <stop offset="1" stop-color="#06B6D4"/>
    </linearGradient>
  </defs>
  <path d="M60 104 V78" stroke="url(#tg)" stroke-width="11" stroke-linecap="round"/>
  <path d="M60 78 C60 66 44 66 44 54 M60 78 C60 66 76 66 76 54" stroke="url(#tg)" stroke-width="11" stroke-linecap="round" fill="none"/>
  <path d="M44 54 V24" stroke="url(#tg)" stroke-width="11" stroke-linecap="round"/>
  <circle cx="44" cy="17" r="7" fill="#2F4BFF"/>
  <path d="M76 54 C76 42 70 40 76 30 C80 24 82 26 84 20" stroke="url(#tgy)" stroke-width="11" stroke-linecap="round" stroke-linejoin="round" fill="none"/>
  <path d="M77 17 L85 13 L87 21 Z" fill="#F97316"/>
  <text x="140" y="62" font-family="'Inter','Helvetica Neue',Arial,sans-serif" font-size="54" font-weight="800" letter-spacing="-1.5" fill="url(#tw)">Tenor</text>
  <text x="142" y="90" font-family="'Inter','Helvetica Neue',Arial,sans-serif" font-size="15" font-weight="500" letter-spacing="0.5" fill="#6D6156">the fixed rate market for Stellar</text>
</svg>
